<svg xmlns="http://www.w3.org/2000/svg" width="640" height="320" viewBox="0 0 640 320" role="img" aria-label="MEΩ top-10 weights">
  <rect width="640" height="320" fill="#0B1220" rx="12" />
  <text x="32" y="36" fill="#F8FAFC" font-family="Inter, system-ui" font-size="16" font-weight="600">MEΩ top-10 weights</text>
  <g transform="translate(64,70)">
    <rect x="0" y="0" width="16" height="180" fill="#C8A156" />
    <rect x="36" y="60" width="16" height="120" fill="#A9B2C3" />
    <rect x="72" y="30" width="16" height="150" fill="#C8A156" />
    <rect x="108" y="90" width="16" height="90" fill="#A9B2C3" />
    <rect x="144" y="110" width="16" height="70" fill="#A9B2C3" />
    <rect x="180" y="130" width="16" height="50" fill="#A9B2C3" />
    <rect x="216" y="140" width="16" height="40" fill="#A9B2C3" />
    <rect x="252" y="150" width="16" height="30" fill="#A9B2C3" />
    <rect x="288" y="160" width="16" height="20" fill="#A9B2C3" />
    <rect x="324" y="170" width="16" height="10" fill="#A9B2C3" />
    <text x="0" y="204" fill="#A9B2C3" font-family="IBM Plex Mono, monospace" font-size="10">USD</text>
    <text x="36" y="204" fill="#A9B2C3" font-family="IBM Plex Mono, monospace" font-size="10">EUR</text>
    <text x="72" y="204" fill="#A9B2C3" font-family="IBM Plex Mono, monospace" font-size="10">CHF</text>
    <text x="108" y="204" fill="#A9B2C3" font-family="IBM Plex Mono, monospace" font-size="10">JPY</text>
    <text x="144" y="204" fill="#A9B2C3" font-family="IBM Plex Mono, monospace" font-size="10">GBP</text>
    <text x="180" y="204" fill="#A9B2C3" font-family="IBM Plex Mono, monospace" font-size="10">XAU</text>
    <text x="216" y="204" fill="#A9B2C3" font-family="IBM Plex Mono, monospace" font-size="10">XAG</text>
    <text x="252" y="204" fill="#A9B2C3" font-family="IBM Plex Mono, monospace" font-size="10">BTC</text>
    <text x="288" y="204" fill="#A9B2C3" font-family="IBM Plex Mono, monospace" font-size="10">ETH</text>
    <text x="324" y="204" fill="#A9B2C3" font-family="IBM Plex Mono, monospace" font-size="10">SGD</text>
  </g>
  <text x="32" y="292" fill="#A9B2C3" font-family="Inter, system-ui" font-size="12">Weights recomputed daily from open feeds; persisted as (date, symbol, weight, meo_usd, m_world_usd).</text>
</svg>
